<svg width="24" height="20" viewBox="0 0 24 20" fill="none" xmlns="http://www.w3.org/2000/svg">
<path id="Vector" d="M20.8428 17.1753L20.8429 17.1753L20.8405 17.182C20.6316 17.76 20.2212 18.1955 19.7185 18.5105C19.218 18.8242 18.6652 19 18.075 19H16C15.2331 19 14.5292 18.7635 13.9434 18.2702C13.6221 17.9996 13.3711 17.6792 13.2091 17.3158H12.7909C12.6289 17.6792 12.3779 17.9996 12.0566 18.2702C11.4708 18.7635 10.7669 19 10 19H8C7.38121 19 6.79502 18.848 6.27211 18.523C5.74463 18.1951 5.35062 17.7313 5.13573 17.1432L5.1357 17.1432L5.13278 17.135L4.05688 14.1089L2.43269 13.6583L2.41215 13.6527L2.39187 13.6461C2.04193 13.5327 1.70664 13.3426 1.44074 13.044L2.1875 12.3789L1.44073 13.044C1.15802 12.7266 1 12.3304 1 11.8947V7.47368C1 6.92357 1.23903 6.44926 1.64336 6.10878C2.03889 5.7757 2.51371 5.63158 3 5.63158H3.81003L5.30306 4.37429C5.27405 4.30217 5.24399 4.22993 5.21288 4.15759C5.1588 4.04109 5.11475 3.92129 5.07885 3.80039C5.02762 3.6278 5 3.44782 5 3.26316C5 2.58947 5.29826 2.02044 5.79336 1.60351C6.28249 1.19161 6.87109 1 7.5 1C8.45962 1 9.36285 1.17847 10.1951 1.55002C10.8502 1.84243 11.4296 2.21877 11.9217 2.68421H16.5C18.2439 2.68421 19.7788 3.20115 21.0441 4.26667C22.3159 5.33765 23 6.70379 23 8.31579C23 8.82679 22.9632 9.35486 22.8914 9.89923C22.8189 10.4488 22.6986 11.0639 22.5343 11.741C22.3698 12.4191 22.1513 13.1975 21.8804 14.0741C21.6087 14.9538 21.2624 15.9882 20.8428 17.1753ZM19.1875 17.6632C19.5458 17.4386 19.7833 17.1649 19.9 16.8421L14 16.3158C14 16.7789 14.1958 17.1754 14.5875 17.5053C14.9792 17.8351 15.45 18 16 18H18.075C18.4583 18 18.8292 17.8877 19.1875 17.6632Z" fill="#F5E022" stroke="#031F34" stroke-width="2"/>
</svg>
