<svg width="26" height="18" viewBox="0 0 26 18" fill="none" xmlns="http://www.w3.org/2000/svg">
<g id="Vector">
<path d="M24.3639 3.93815C20.85 0.435502 15.2242 0.915129 14.2253 1.18977C11.3601 1.79527 5.38769 4.88179 3.72741 12.4153C3.62247 12.8914 3.35474 13.3167 2.95782 13.5857L1.35785 14.67C1.02253 14.8972 0.904531 15.3452 1.08262 15.7149C1.25095 16.0644 1.71435 16.3782 2.08 16.2727C2.58492 16.1271 3.35234 15.4761 3.88 15.303C4.77111 15.0108 5.81137 15.3582 6.67322 15.7316C13.1702 18.5469 18.4519 16.2402 21.4545 13.0546C25.5564 8.36045 25.1281 5.71183 24.8061 4.67421C24.72 4.39677 24.5674 4.141 24.3639 3.93815Z" fill="#1CB08C"/>
<path d="M6.28942 12.9809C8.78883 10.5972 15.2718 5.81752 21.2085 5.76801M14.2253 1.18977C15.2242 0.915129 20.85 0.435502 24.3639 3.93815C24.5674 4.141 24.72 4.39677 24.8061 4.67421C25.1281 5.71183 25.5564 8.36045 21.4545 13.0546C18.4519 16.2402 13.1702 18.5469 6.67322 15.7316C5.81137 15.3582 4.77111 15.0108 3.88 15.303C3.35234 15.4761 2.58492 16.1271 2.08 16.2727C1.71435 16.3782 1.25095 16.0644 1.08262 15.7149C0.904531 15.3452 1.02253 14.8972 1.35785 14.67L2.95782 13.5857C3.35474 13.3167 3.62247 12.8914 3.72741 12.4153C5.38769 4.88179 11.3601 1.79527 14.2253 1.18977Z" stroke="#031F34" stroke-width="2"/>
</g>
</svg>
